<svg width="247" height="118" viewBox="0 0 247 118" fill="none" xmlns="http://www.w3.org/2000/svg">
<g clip-path="url(#clip0_227_1205)">
<path d="M218.553 117.385L219.395 101.796C219.395 101.796 247 96.0965 247 79.6695C247 63.2425 201.889 61.231 197.344 68.774C197.299 68.8495 197.253 68.9249 197.208 69.0003C191.595 78.4277 194.764 90.6671 204.316 96.1114C207.583 97.9731 211.477 99.5661 216.028 100.455L215.708 117.015" fill="#CCCCCC"/>
<path d="M192.949 32.2747C201.556 32.2747 208.534 25.3265 208.534 16.7554C208.534 8.18431 201.556 1.23608 192.949 1.23608C184.342 1.23608 177.365 8.18431 177.365 16.7554C177.365 25.3265 184.342 32.2747 192.949 32.2747Z" fill="#F6005B"/>
<path d="M169.958 113.689L152.382 112.574L151.434 33.8683C151.411 31.958 152.176 30.0873 153.533 28.7363L172.363 9.9849C174.999 7.36022 179.147 7.17054 182.013 9.54479L202.448 26.4727C204.115 27.8537 205.057 29.8842 205.031 32.0435L204.329 91.2338L213.211 103.518L213.229 103.544L214.734 116.532L169.958 113.689V113.689Z" fill="#BABABA"/>
<path d="M172.912 28.3105V24.6609C172.912 23.6976 173.699 22.9138 174.667 22.9138H179.816C180.783 22.9138 181.57 23.6976 181.57 24.6609V28.3105C181.57 29.2739 180.783 30.0576 179.816 30.0576H174.667C173.699 30.0576 172.912 29.2739 172.912 28.3105Z" fill="#0F092B"/>
<path d="M162.028 56.6396V43.1365C162.028 42.1732 162.815 41.3894 163.782 41.3894H171.405C172.373 41.3894 173.16 42.1732 173.16 43.1365V56.6396C173.16 57.603 172.373 58.3867 171.405 58.3867H163.782C162.815 58.3867 162.028 57.603 162.028 56.6396Z" fill="#3F3D56"/>
<path d="M179.259 88.2474C178.338 88.215 177.595 87.4704 177.567 86.5527L177.182 73.5013C177.166 72.9442 177.408 72.4265 177.846 72.0803C178.285 71.7344 178.847 71.6189 179.388 71.7618L179.773 71.8643C180.54 72.068 181.076 72.7621 181.076 73.5523V86.5014C181.076 86.9797 180.885 87.4262 180.54 87.7584C180.209 88.0759 179.779 88.2484 179.323 88.2484C179.302 88.2484 179.28 88.2482 179.259 88.2474L179.259 88.2474Z" fill="#3F3D56"/>
<path d="M155.885 87.7584C155.539 87.4261 155.349 86.9797 155.349 86.5014V73.5523C155.349 72.762 155.885 72.068 156.651 71.8643L157.037 71.7618C157.578 71.6189 158.14 71.7344 158.578 72.0803C159.017 72.4262 159.259 72.9442 159.243 73.5013L158.857 86.5527C158.83 87.4704 158.087 88.215 157.166 88.2474C157.144 88.2482 157.123 88.2484 157.102 88.2484C156.645 88.2484 156.215 88.0757 155.885 87.7584H155.885Z" fill="#3F3D56"/>
<path d="M163.265 86.4467V72.9043C163.265 71.9483 164.017 71.1812 164.977 71.1576L171.905 70.9894C172.865 70.9762 173.673 71.7268 173.702 72.6854L174.101 86.3959C174.114 86.872 173.939 87.3223 173.605 87.6639C173.272 88.0055 172.825 88.1937 172.347 88.1937H165.019C164.052 88.1937 163.265 87.4099 163.265 86.4467H163.265Z" fill="#3F3D56"/>
<path d="M204.217 95.7002L209.647 105.314L210.27 116.126L214.594 116.399L213.11 103.59L204.205 91.2727C203.436 92.6504 203.441 94.3266 204.217 95.7002Z" fill="#CCCCCC"/>
<path d="M210.097 113.031L192.472 113.271L192.475 113.518L210.1 113.278L210.097 113.031Z" fill="#3F3D56"/>
<path d="M209.027 110.857L192.316 110.987L192.318 111.234L209.029 111.104L209.027 110.857Z" fill="#3F3D56"/>
<path d="M208.16 108.636L192.175 108.947L192.18 109.193L208.165 108.882L208.16 108.636Z" fill="#3F3D56"/>
<path d="M207.664 106.426L192.313 106.934L192.321 107.18L207.672 106.673L207.664 106.426Z" fill="#3F3D56"/>
<path d="M206.922 104.459L192.173 104.975L192.182 105.222L206.93 104.705L206.922 104.459Z" fill="#3F3D56"/>
<path d="M205.936 102.728H191.571V102.974H205.936V102.728Z" fill="#3F3D56"/>
<path d="M205.193 100.999L191.232 101.162L191.235 101.408L205.196 101.245L205.193 100.999Z" fill="#3F3D56"/>
<path d="M204.448 99.2761L190.92 99.7234L190.929 99.9697L204.456 99.5224L204.448 99.2761Z" fill="#3F3D56"/>
<path d="M203.955 97.5608L190.597 97.7947L190.601 98.041L203.96 97.8072L203.955 97.5608Z" fill="#3F3D56"/>
<path d="M202.964 95.8546L190.173 96.2527L190.181 96.499L202.972 96.101L202.964 95.8546Z" fill="#3F3D56"/>
<path d="M202.472 94.3521L189.794 94.4753L189.797 94.7217L202.474 94.5984L202.472 94.3521Z" fill="#3F3D56"/>
<path d="M188.868 89.2794V72.5739C188.868 71.6104 189.655 70.8267 190.622 70.8267H198.74C199.707 70.8267 200.494 71.6104 200.494 72.5739V89.2794C200.494 90.2426 199.707 91.0264 198.74 91.0264H190.622C189.655 91.0264 188.868 90.2426 188.868 89.2794Z" fill="#0F092B"/>
<path d="M169.958 113.689L155.588 112.778L155.473 112.77V101.696C155.473 100.295 156.617 99.1555 158.023 99.1555H172.217C173.623 99.1555 174.768 100.295 174.768 101.696V113.689H174.644L169.958 113.689H169.958Z" fill="#CCCCCC"/>
<path d="M189.857 58.9798V46.2156C189.857 45.2523 190.644 44.4685 191.612 44.4685H194.287C195.255 44.4685 196.041 45.2523 196.041 46.2156V58.9798C196.041 59.9431 195.255 60.7268 194.287 60.7268H191.612C190.644 60.7268 189.857 59.9431 189.857 58.9798Z" fill="#3F3D56"/>
<path d="M192.578 114.921L191.836 104.082L189.61 93.7362L188.992 90.9033C187.721 90.0428 186.009 91 186.086 92.5285L186.147 93.7362L188.373 104.082L189.115 114.921" fill="#CCCCCC"/>
<path d="M108.363 109.748L90.7866 108.632L89.8386 29.927C89.8157 28.0166 90.5805 26.146 91.9372 24.795L110.767 6.04358C113.403 3.41853 117.552 3.22933 120.418 5.60346L140.853 22.5314C142.52 23.9124 143.461 25.9428 143.436 28.1021L142.734 87.2925L151.615 99.5764L151.634 99.6024L153.139 112.59L108.363 109.748V109.748Z" fill="#BABABA"/>
<path d="M111.317 24.3691V20.7195C111.317 19.7562 112.104 18.9724 113.071 18.9724H118.221C119.188 18.9724 119.975 19.7562 119.975 20.7195V24.3691C119.975 25.3325 119.188 26.1162 118.221 26.1162H113.071C112.104 26.1162 111.317 25.3325 111.317 24.3691Z" fill="#0F092B"/>
<path d="M100.433 52.698V39.1949C100.433 38.2315 101.22 37.4478 102.187 37.4478H109.81C110.777 37.4478 111.564 38.2315 111.564 39.1949V52.698C111.564 53.6613 110.777 54.4451 109.81 54.4451H102.187C101.22 54.4451 100.433 53.6613 100.433 52.698Z" fill="#3F3D56"/>
<path d="M116.405 68.3321C116.028 68.6292 115.82 69.0742 115.834 69.5527L116.219 82.6041C116.243 83.3924 116.881 84.0318 117.672 84.0597C118.088 84.0763 118.476 83.925 118.772 83.6397C119.069 83.3544 119.233 82.9709 119.233 82.56V69.6109C119.233 68.932 118.773 68.3359 118.114 68.161L117.728 68.0586C117.598 68.0239 117.466 68.0068 117.335 68.0068C117.001 68.0068 116.676 68.1184 116.405 68.3321Z" fill="#3F3D56"/>
<path d="M94.2893 83.817C93.9439 83.4847 93.7535 83.0383 93.7535 82.56V69.6109C93.7535 68.8206 94.2891 68.1266 95.0559 67.9229L95.4414 67.8204C95.9816 67.6775 96.544 67.793 96.9827 68.1389C97.4216 68.4851 97.6636 69.003 97.6472 69.5599L97.2617 82.6113C97.2346 83.529 96.4918 84.2736 95.5702 84.306C95.5489 84.3068 95.5274 84.307 95.5062 84.307C95.0498 84.307 94.6198 84.1343 94.2893 83.817Z" fill="#3F3D56"/>
<path d="M101.669 82.5051V68.9627C101.669 68.0067 102.421 67.2396 103.381 67.216L110.31 67.0478C110.324 67.0476 110.339 67.0474 110.353 67.0474C111.296 67.0474 112.079 67.7996 112.106 68.7438L112.505 82.4543C112.519 82.9304 112.343 83.3807 112.01 83.7223C111.677 84.0639 111.23 84.2521 110.751 84.2521H103.424C102.456 84.2521 101.669 83.4683 101.669 82.5051Z" fill="#3F3D56"/>
<path d="M142.621 91.7588L148.052 101.373L148.675 112.184L152.999 112.458L151.515 99.6482L142.609 87.3313C141.841 88.709 141.845 90.3852 142.621 91.7588Z" fill="#CCCCCC"/>
<path d="M148.501 109.09L130.876 109.33L130.88 109.576L148.505 109.336L148.501 109.09Z" fill="#3F3D56"/>
<path d="M147.432 106.916L130.721 107.046L130.723 107.292L147.434 107.162L147.432 106.916Z" fill="#3F3D56"/>
<path d="M146.565 104.694L130.58 105.005L130.585 105.251L146.57 104.941L146.565 104.694Z" fill="#3F3D56"/>
<path d="M146.069 102.485L130.718 102.992L130.726 103.239L146.077 102.731L146.069 102.485Z" fill="#3F3D56"/>
<path d="M145.326 100.518L130.578 101.034L130.586 101.28L145.335 100.764L145.326 100.518Z" fill="#3F3D56"/>
<path d="M144.341 98.7861H129.976V99.0325H144.341V98.7861Z" fill="#3F3D56"/>
<path d="M143.597 97.0575L129.637 97.2205L129.64 97.4668L143.6 97.3039L143.597 97.0575Z" fill="#3F3D56"/>
<path d="M142.852 95.3347L129.325 95.782L129.333 96.0283L142.861 95.581L142.852 95.3347Z" fill="#3F3D56"/>
<path d="M142.36 93.6194L129.002 93.8533L129.006 94.0996L142.364 93.8658L142.36 93.6194Z" fill="#3F3D56"/>
<path d="M141.368 91.9132L128.578 92.3113L128.586 92.5576L141.376 92.1596L141.368 91.9132Z" fill="#3F3D56"/>
<path d="M140.877 90.4106L128.199 90.5339L128.201 90.7803L140.879 90.657L140.877 90.4106Z" fill="#3F3D56"/>
<path d="M127.272 85.338V68.6325C127.272 67.669 128.059 66.8853 129.027 66.8853H137.144C138.112 66.8853 138.899 67.669 138.899 68.6325V85.338C138.899 86.3012 138.112 87.085 137.144 87.085H129.027C128.059 87.085 127.272 86.3012 127.272 85.338Z" fill="#0F092B"/>
<path d="M108.363 109.748L93.993 108.836L93.8773 108.829V97.7542C93.8773 96.3537 95.0217 95.2141 96.4281 95.2141H110.622C112.028 95.2141 113.172 96.3537 113.172 97.7542V109.748H113.049L108.363 109.748Z" fill="#CCCCCC"/>
<path d="M128.262 55.0383V42.2742C128.262 41.3109 129.049 40.5271 130.016 40.5271H132.692C133.659 40.5271 134.446 41.3109 134.446 42.2742V55.0383C134.446 56.0017 133.659 56.7854 132.692 56.7854H130.016C129.049 56.7854 128.262 56.0017 128.262 55.0383Z" fill="#3F3D56"/>
<path d="M130.983 110.98L130.241 100.141L128.014 89.7948L127.396 86.9619C126.125 86.1014 124.414 87.0586 124.491 88.5871L124.551 89.7948L126.778 100.141L127.52 110.98" fill="#CCCCCC"/>
<path d="M46.7674 105.806L29.1912 104.691L28.2433 25.9855C28.2204 24.0751 28.9852 22.2045 30.3418 20.8535L49.172 2.10208C51.8078 -0.522841 55.9568 -0.712046 58.8224 1.66197L79.2573 18.5899C80.9244 19.9709 81.8658 22.0013 81.8402 24.1607L81.1382 83.351L90.0199 95.6349L90.0385 95.6609L91.5435 108.649L46.7674 105.806L46.7674 105.806Z" fill="#BABABA"/>
<path d="M49.7216 20.4277V16.7781C49.7216 15.8148 50.5086 15.031 51.4761 15.031H56.6252C57.5925 15.031 58.3795 15.8148 58.3795 16.7781V20.4277C58.3795 21.3911 57.5925 22.1748 56.6252 22.1748H51.4761C50.5086 22.1748 49.7216 21.3911 49.7216 20.4277Z" fill="#0F092B"/>
<path d="M38.8372 48.7566V35.2534C38.8372 34.2901 39.6242 33.5063 40.5917 33.5063H48.2146C49.1818 33.5063 49.9689 34.2901 49.9689 35.2534V48.7566C49.9689 49.7199 49.1818 50.5037 48.2146 50.5037H40.5917C39.6242 50.5037 38.8372 49.7199 38.8372 48.7566Z" fill="#3F3D56"/>
<path d="M56.0684 80.3645C55.1471 80.332 54.404 79.5875 54.3767 78.6697L53.9914 65.6184C53.975 65.0612 54.217 64.5433 54.6557 64.1973C55.0944 63.8514 55.6561 63.7357 56.197 63.8788L56.5825 63.9813C57.3493 64.1851 57.8848 64.8791 57.8848 65.6694V78.6185C57.8848 79.0967 57.6945 79.5432 57.349 79.8754C57.0185 80.193 56.5888 80.3655 56.1324 80.3655C56.1112 80.3655 56.0897 80.3652 56.0684 80.3645L56.0684 80.3645Z" fill="#3F3D56"/>
<path d="M33.4925 64.1005L33.878 63.9982C34.9325 63.7181 35.9603 64.5287 35.9282 65.615L35.5427 78.6664C35.5175 79.522 34.8295 80.2112 33.9705 80.2415H33.9705C33.0478 80.2741 32.282 79.538 32.282 78.6186V65.6696C32.282 64.9339 32.7787 64.2901 33.4925 64.1005V64.1005Z" fill="#3F3D56"/>
<path d="M40.0741 78.5637V65.0213C40.0741 64.0653 40.8259 63.2982 41.7859 63.2746L48.7142 63.1064C49.6795 63.091 50.4828 63.8438 50.5108 64.8024L50.9099 78.5129C50.9236 78.989 50.7478 79.4393 50.4144 79.7809C50.0813 80.1225 49.6344 80.3106 49.156 80.3106H41.8286C40.8611 80.3106 40.0741 79.5269 40.0741 78.5637H40.0741Z" fill="#3F3D56"/>
<path d="M81.0258 87.8174L86.4562 97.4312L87.0795 108.243L91.4036 108.516L89.9194 95.7068L81.014 83.3899C80.2454 84.7676 80.2499 86.4438 81.0258 87.8174Z" fill="#CCCCCC"/>
<path d="M86.9059 105.148L69.281 105.388L69.2844 105.635L86.9092 105.395L86.9059 105.148Z" fill="#3F3D56"/>
<path d="M85.8367 102.974L69.1256 103.104L69.1275 103.351L85.8386 103.221L85.8367 102.974Z" fill="#3F3D56"/>
<path d="M84.9695 100.753L68.9845 101.064L68.9893 101.31L84.9743 100.999L84.9695 100.753Z" fill="#3F3D56"/>
<path d="M84.4732 98.5435L69.1224 99.051L69.1306 99.2974L84.4814 98.7898L84.4732 98.5435Z" fill="#3F3D56"/>
<path d="M83.731 96.5762L68.9822 97.0925L68.9909 97.3389L83.7397 96.8225L83.731 96.5762Z" fill="#3F3D56"/>
<path d="M82.7455 94.8447H68.3804V95.0911H82.7455V94.8447Z" fill="#3F3D56"/>
<path d="M82.0019 93.1161L68.0413 93.2791L68.0442 93.5254L82.0048 93.3625L82.0019 93.1161Z" fill="#3F3D56"/>
<path d="M81.2572 91.3933L67.7295 91.8406L67.7377 92.0869L81.2654 91.6396L81.2572 91.3933Z" fill="#3F3D56"/>
<path d="M80.7645 89.678L67.4062 89.9119L67.4106 90.1582L80.7689 89.9244L80.7645 89.678Z" fill="#3F3D56"/>
<path d="M79.7731 87.9718L66.9825 88.3699L66.9903 88.6162L79.7809 88.2182L79.7731 87.9718Z" fill="#3F3D56"/>
<path d="M79.2812 86.4692L66.6034 86.5925L66.6058 86.8389L79.2836 86.7156L79.2812 86.4692Z" fill="#3F3D56"/>
<path d="M65.677 81.3966V64.6911C65.677 63.7276 66.464 62.9438 67.4315 62.9438H75.5491C76.5164 62.9438 77.3034 63.7276 77.3034 64.6911V81.3966C77.3034 82.3598 76.5164 83.1436 75.5491 83.1436H67.4315C66.464 83.1436 65.677 82.3598 65.677 81.3966Z" fill="#0F092B"/>
<path d="M46.7673 105.806L32.3976 104.895L32.2819 104.887V93.8128C32.2819 92.4123 33.4262 91.2727 34.8326 91.2727H49.0263C50.4327 91.2727 51.5768 92.4123 51.5768 93.8128V105.807H51.4531L46.7673 105.806Z" fill="#CCCCCC"/>
<path d="M66.6665 51.0969V38.3328C66.6665 37.3695 67.4536 36.5857 68.4211 36.5857H71.0965C72.0637 36.5857 72.8508 37.3695 72.8508 38.3328V51.0969C72.8508 52.0603 72.0637 52.844 71.0965 52.844H68.4211C67.4536 52.844 66.6665 52.0603 66.6665 51.0969Z" fill="#3F3D56"/>
<path d="M69.3876 107.039L68.6455 96.1996L66.4191 85.8534L65.8007 83.0205C64.5299 82.16 62.8186 83.1172 62.8953 84.6457L62.956 85.8534L65.1823 96.1996L65.9244 107.039" fill="#CCCCCC"/>
<path d="M24.1194 104.329L24.961 88.7398C24.961 88.7398 52.5664 83.0406 52.5664 66.6136C52.5664 50.1866 7.45513 48.1751 2.91035 55.7181C2.8649 55.7936 2.81973 55.869 2.77483 55.9444C-2.83866 65.3718 0.330652 77.6112 9.88289 83.0555C13.1492 84.9172 17.0437 86.5102 21.5945 87.3988L21.2739 103.959" fill="#CCCCCC"/>
<path d="M6.23159 103.008L6.19971 103.5L231.278 117.974L231.309 117.483L6.23159 103.008Z" fill="#CCCCCC"/>
</g>
<defs>
<clipPath id="clip0_227_1205">
<rect width="247" height="118" fill="white"/>
</clipPath>
</defs>
</svg>
