<svg xmlns="http://www.w3.org/2000/svg" xmlns:xlink="http://www.w3.org/1999/xlink" width="800" height="800" viewBox="0 -28.5 256 256" preserveAspectRatio="xMidYMid"><path fill="#5865F2" fill-rule="nonzero" d="M216.856 16.597A208.502 208.502 0 0 0 164.042 0c-2.275 4.113-4.933 9.645-6.766 14.046-19.692-2.961-39.203-2.961-58.533 0-1.832-4.401-4.55-9.933-6.845-14.046a208.543 208.543 0 0 0-52.855 16.638c-33.425 50.509-42.486 99.763-37.955 148.318 22.169 16.555 43.653 26.612 64.775 33.193 5.215-7.178 9.866-14.808 13.873-22.849-7.631-2.9-14.94-6.478-21.846-10.632 1.832-1.357 3.624-2.776 5.356-4.236 42.122 19.702 87.89 19.702 129.51 0a95.23 95.23 0 0 0 5.355 4.236c-6.926 4.175-14.255 7.753-21.886 10.653 4.006 8.02 8.637 15.67 13.873 16.848 21.142-6.581 42.646-16.637 64.815-33.213 5.316-56.288-9.08-105.09-38.055-148.359zM85.474 135.095c-12.645 0-23.015-11.805-23.015-26.18 0-14.375 10.149-26.2 23.015-26.2 12.867 0 23.236 11.804 23.015 26.2.02 14.375-10.148 26.18-23.015 26.18zm85.051 0c-12.645 0-23.015-11.805-23.015-26.18 0-14.375 10.149-26.2 23.015-26.2 12.867 0 23.236 11.804 23.015 26.2 0 14.375-10.148 26.18-23.015 26.18z"/></svg>